<!DOCTYPE svg PUBLIC "-//W3C//DTD SVG 20010904//EN" "http://www.w3.org/TR/2001/REC-SVG-20010904/DTD/svg10.dtd">
<svg version="1.0" xmlns="http://www.w3.org/2000/svg" width="224px" height="215px" viewBox="0 0 2240 2150" preserveAspectRatio="xMidYMid meet">
<g id="layer101" fill="#fff" stroke="none">
 <path d="M963 1616 l-123 -145 0 -186 0 -185 -118 0 -117 0 -62 -72 c-34 -40 -80 -95 -102 -123 l-41 -50 341 -3 c188 -1 344 -1 346 1 2 2 2 207 1 455 l-3 452 -122 -144z"/>
 <path d="M1130 853 c0 -385 2 -455 14 -443 7 8 63 74 125 147 l111 131 0 186 0 186 113 0 c61 0 117 4 122 8 10 6 163 184 194 225 13 16 -5 17 -333 17 l-346 0 0 -457z"/>
 </g>

</svg>